<svg xmlns="http://www.w3.org/2000/svg" viewBox="0 0 64 64">
  <path fill="currentColor" d="M14 12h22a8 8 0 0 1 8 8v2h-4v-2a4 4 0 0 0-4-4H14a4 4 0 0 0-4 4v13a4 4 0 0 0 3.5 4v4.5L18.5 38H22v4H20l-10 7V41a8 8 0 0 1-4-7V20a8 8 0 0 1 8-8Z"/>
  <path fill="currentColor" d="M27 22h22a9 9 0 0 1 9 9v14a9 9 0 0 1-9 9h-9.5L27 62v-8a9 9 0 0 1-9-9V31a9 9 0 0 1 9-9Zm0 4a5 5 0 0 0-5 5v14a5 5 0 0 0 5 5h4v5.5L40 49h9a5 5 0 0 0 5-5V31a5 5 0 0 0-5-5H27Z"/>
  <path fill="var(--icon-color-accent, #ff8700)" d="M27 32h20v3.5H27Z"/>
  <path fill="currentColor" d="M27 38h16v2H27Zm0 5h12v2H27Z"/>
</svg>
