<svg xmlns="http://www.w3.org/2000/svg" viewBox="0 0 64 64">
  <g opacity=".4">
    <path fill="currentColor" d="M44 28H36a2 2 0 0 1-2-2v-8l10 10z"/>
  </g>
  <path fill="currentColor" d="M34 20l8 8v20H22V20h12m2-4H20v34h24V26l-8-10z"/>
  <path fill="var(--icon-color-accent, #ff8700)" d="M20 16h14l2 2.5V14a2 2 0 0 0-2-2H14a2 2 0 0 0-2 2v32a2 2 0 0 0 2 2h6V16z"/>
  <g opacity=".4">
    <rect fill="currentColor" x="26" y="34" width="14" height="2" rx=".5"/>
    <rect fill="currentColor" x="26" y="38" width="14" height="1.5" rx=".5"/>
    <rect fill="currentColor" x="26" y="42" width="10" height="1.5" rx=".5"/>
  </g>
</svg>
