<svg xmlns="http://www.w3.org/2000/svg" viewBox="0 0 64 64">
  <path fill="currentColor" opacity=".8" d="M12 18c0-4.7 3-8 8-8h5v35h-6c-3 0-5.4 1.1-7 3.2V18z"/>
  <path fill="currentColor" d="M20 10h19c8 0 14.4 2.5 19 7.5V52h-3.5l-.7-.7c-3.5-3.1-8.2-4.3-14.8-4.3H20c-1.9 0-3 1.1-3 3v2h-5V18c0-5 3.5-8 8-8zm0 4c-2.5 0-4 1.5-4 4v25.6c1.2-.4 2.5-.6 4-.6h19c6 0 10.9 1 15 3.2V19.3C50.1 15.8 45.1 14 39 14H20z"/>
  <path fill="var(--icon-color-accent, #ff8700)" d="M20 14h7v18.5L23.5 29 20 32.5V14z"/>
  <path fill="currentColor" opacity=".55" d="M31 23h14v4H31zm0 8h14v4H31zm0 8h10v4H31z"/>
</svg>
