<svg xmlns="http://www.w3.org/2000/svg" viewBox="0 0 64 64">
  <path fill="var(--typo3-text-color, currentColor)" d="M35 12h-6l-1.2 4.3a14 14 0 0 0-3.4 1.4L20.6 15l-4.2 4.2 2.7 3.8a14 14 0 0 0-1.4 3.4L13.4 27.6v6l4.3 1.2a14 14 0 0 0 1.4 3.4L16.4 42l4.2 4.2 3.8-2.7a14 14 0 0 0 3.4 1.4L29 49.2h6l1.2-4.3a14 14 0 0 0 3.4-1.4l3.8 2.7 4.2-4.2-2.7-3.8a14 14 0 0 0 1.4-3.4l4.3-1.2v-6l-4.3-1.2a14 14 0 0 0-1.4-3.4l2.7-3.8L43.4 15l-3.8 2.7a14 14 0 0 0-3.4-1.4L35 12zm-3 5a13.6 13.6 0 0 1 2.5.2l.8.2 1-3.4h1.4l1 3.4.8.2a12 12 0 0 1 3 1.2l.7.4 2.8-2 1 1-2 2.8.4.7a12 12 0 0 1 1.2 3l.2.8 3.4 1v1.4l-3.4 1-.2.8a12 12 0 0 1-1.2 3l-.4.7 2 2.8-1 1-2.8-2-.7.4a12 12 0 0 1-3 1.2l-.8.2-1 3.4h-1.4l-1-3.4-.8-.2a12 12 0 0 1-3-1.2l-.7-.4-2.8 2-1-1 2-2.8-.4-.7a12 12 0 0 1-1.2-3l-.2-.8-3.4-1v-1.4l3.4-1 .2-.8a12 12 0 0 1 1.2-3l.4-.7-2-2.8 1-1 2.8 2 .7-.4a12 12 0 0 1 3-1.2l.8-.2 1-3.4h.1A13.6 13.6 0 0 1 32 17z"/>
  <circle fill="var(--typo3-text-color, currentColor)" cx="32" cy="30.6" r="8" opacity=".15"/>
  <path fill="var(--icon-color-accent, #ff8700)" d="M32 24.6a6 6 0 1 0 0 12 6 6 0 0 0 0-12zm0 10a4 4 0 1 1 0-8 4 4 0 0 1 0 8z"/>
</svg>
