<svg xmlns="http://www.w3.org/2000/svg" viewBox="0 0 64 64">
  <g fill="currentColor" opacity=".8">
    <rect x="29" y="8" width="6" height="10" rx="2"/>
    <rect x="29" y="46" width="6" height="10" rx="2"/>
    <rect x="46" y="29" width="10" height="6" rx="2"/>
    <rect x="8" y="29" width="10" height="6" rx="2"/>
    <rect x="14.5" y="14.5" width="6" height="10" rx="2" transform="rotate(-45 17.5 19.5)"/>
    <rect x="43.5" y="14.5" width="6" height="10" rx="2" transform="rotate(45 46.5 19.5)"/>
    <rect x="14.5" y="39.5" width="6" height="10" rx="2" transform="rotate(45 17.5 44.5)"/>
    <rect x="43.5" y="39.5" width="6" height="10" rx="2" transform="rotate(-45 46.5 44.5)"/>
  </g>
  <path fill="currentColor" fill-rule="evenodd" d="M32 14a18 18 0 1 1 0 36 18 18 0 1 1 0-36zm0 10a8 8 0 1 0 0 16 8 8 0 0 0 0-16z"/>
  <g fill="var(--icon-color-accent, #ff8700)">
    <rect x="45" y="31" width="3" height="5" rx="1"/>
    <rect x="45" y="49" width="3" height="5" rx="1"/>
    <rect x="51" y="37" width="5" height="3" rx="1"/>
    <rect x="39" y="37" width="5" height="3" rx="1"/>
  </g>
  <path fill="var(--icon-color-accent, #ff8700)" fill-rule="evenodd" d="M46 34a8 8 0 1 1 0 16 8 8 0 1 1 0-16zm0 4a4 4 0 1 0 0 8 4 4 0 0 0 0-8z"/>
</svg>
