<svg xmlns="http://www.w3.org/2000/svg" viewBox="0 0 64 64">
  <g fill="currentColor">
    <rect x="29" y="4" width="6" height="10" rx="2"/>
    <rect x="29" y="50" width="6" height="10" rx="2"/>
    <rect x="50" y="29" width="10" height="6" rx="2"/>
    <rect x="4" y="29" width="10" height="6" rx="2"/>
    <rect x="11.5" y="11.5" width="6" height="10" rx="2" transform="rotate(-45 14.5 16.5)"/>
    <rect x="46.5" y="11.5" width="6" height="10" rx="2" transform="rotate(45 49.5 16.5)"/>
    <rect x="11.5" y="42.5" width="6" height="10" rx="2" transform="rotate(45 14.5 47.5)"/>
    <rect x="46.5" y="42.5" width="6" height="10" rx="2" transform="rotate(-45 49.5 47.5)"/>
  </g>
  <path fill="currentColor" fill-rule="evenodd" d="M32 12a20 20 0 1 0 0 40 20 20 0 1 0 0-40Zm0 12a8 8 0 1 0 0 16 8 8 0 0 0 0-16Z"/>
  <circle fill="var(--icon-color-accent, #ff8700)" cx="32" cy="32" r="5"/>
</svg>
