<svg xmlns="http://www.w3.org/2000/svg" viewBox="0 0 64 64">
  <!-- Depth layer (v14: strong fill mass in sidebar) -->
  <path fill="currentColor" opacity=".8" d="M40 18H22a2 2 0 0 0-2 2v16l4-4h16a2 2 0 0 0 2-2V20a2 2 0 0 0-2-2z"/>
  <!-- Main bubble outline -->
  <path fill="currentColor" d="M46 24H28a2 2 0 0 0-2 2v18a2 2 0 0 0 2 2h12l6 6V44h0a2 2 0 0 0 2-2V26a2 2 0 0 0-2-2zm0 18h-2v4l-4-4H28V26h18v16z"/>
  <!-- Accent (theme token via CSS variable icon-color-accent) -->
  <rect fill="var(--icon-color-accent, #ff8700)" x="28" y="28" width="20" height="5" rx="1.25"/>
  <!-- Secondary lines -->
  <g opacity=".5">
    <rect fill="currentColor" x="31" y="36" width="12" height="2" rx=".5"/>
    <rect fill="currentColor" x="31" y="40" width="8" height="1.5" rx=".5"/>
  </g>
</svg>
