<svg xmlns="http://www.w3.org/2000/svg" viewBox="0 0 64 64">
  <path fill="var(--icon-color-accent, #ff8700)" d="M14 16h6v32h-6a2 2 0 0 1-2-2V18a2 2 0 0 1 2-2z"/>
  <path fill="currentColor" d="M22 16h22a2 2 0 0 1 2 2v28a2 2 0 0 1-2 2H22V16zm2 2v28h20V18H24z"/>
  <g opacity=".5">
    <rect fill="currentColor" x="28" y="22" width="14" height="2" rx=".5"/>
    <rect fill="currentColor" x="28" y="26" width="14" height="1.5" rx=".5"/>
    <rect fill="currentColor" x="28" y="30" width="14" height="1.5" rx=".5"/>
    <rect fill="currentColor" x="28" y="34" width="10" height="1.5" rx=".5"/>
    <rect fill="currentColor" x="28" y="38" width="14" height="1.5" rx=".5"/>
    <rect fill="currentColor" x="28" y="42" width="8" height="1.5" rx=".5"/>
  </g>
</svg>
