<svg xmlns="http://www.w3.org/2000/svg" viewBox="0 0 64 64">
  <path fill="currentColor" opacity=".8" d="M14 14h20a8 8 0 0 1 8 8v10a8 8 0 0 1-8 8H24l-8 7v-7h-2a8 8 0 0 1-8-8V22a8 8 0 0 1 8-8z"/>
  <path fill="currentColor" d="M31 24h18a9 9 0 0 1 9 9v11a9 9 0 0 1-9 9H39l-9 7v-7h-1a9 9 0 0 1-9-9V33a9 9 0 0 1 9-9zm0 4a5 5 0 0 0-5 5v11a5 5 0 0 0 5 5h3v3.2L38 49h11a5 5 0 0 0 5-5V33a5 5 0 0 0-5-5H31z"/>
  <path fill="var(--icon-color-accent, #ff8700)" d="M31 33h16v4H31z"/>
  <path fill="currentColor" opacity=".55" d="M31 41h11v3H31z"/>
</svg>
