<svg xmlns="http://www.w3.org/2000/svg" viewBox="0 0 64 64">
  <g transform="scale(4)">
    <path fill="currentColor" opacity=".8" d="M2 2h2v11h-.5A1.5 1.5 0 0 0 2 14.5V2z"/>
    <path fill="currentColor" d="M4 1h9a2 2 0 0 1 2 2v11H4.5A1.5 1.5 0 0 0 3 15.5V3a2 2 0 0 1 1-2zm0 1a1 1 0 0 0-1 1v10.8c.4-.5.9-.8 1.5-.8H14V3a1 1 0 0 0-1-1H4z"/>
    <rect fill="var(--icon-color-accent, #ff8700)" x="6" y="4" width="6" height="1.5" rx=".3"/>
    <g opacity=".5">
      <rect fill="currentColor" x="6" y="6.8" width="6" height="1" rx=".3"/>
      <rect fill="currentColor" x="6" y="8.8" width="6" height="1" rx=".3"/>
      <rect fill="currentColor" x="6" y="10.8" width="4" height="1" rx=".3"/>
    </g>
  </g>
</svg>
