<svg xmlns="http://www.w3.org/2000/svg" viewBox="0 0 16 16">
  <path fill="currentColor" d="M11 3a2 2 0 1 0 0 4 2 2 0 0 0 0-4Zm0 1a1 1 0 1 1 0 2 1 1 0 0 1 0-2Z"/>
  <path fill="currentColor" d="M11 8c-.8 0-1.6.2-2.2.6.3.3.5.7.7 1.1a3 3 0 0 1 4.5 2.6v.2H16v-.5A3.5 3.5 0 0 0 11 8Z"/>
  <path fill="currentColor" d="M5.5 2.5a3 3 0 1 0 0 6 3 3 0 0 0 0-6Zm0 1a2 2 0 1 1 0 4 2 2 0 0 1 0-4Z"/>
  <path fill="currentColor" d="M5.5 9A4.5 4.5 0 0 0 1 13.5V15h9v-1.5A4.5 4.5 0 0 0 5.5 9Zm0 1a3.5 3.5 0 0 1 3.5 3.5V14H2v-.5A3.5 3.5 0 0 1 5.5 10Z"/>
  <circle fill="var(--icon-color-accent, #ff8700)" cx="11" cy="5" r="1"/>
</svg>
