<svg xmlns="http://www.w3.org/2000/svg" viewBox="0 0 16 16">
  <circle fill="var(--icon-color-accent, #ff8700)" cx="8" cy="8" r="7" opacity=".3"/>
  <path fill="var(--typo3-text-color, currentColor)" d="M8 1a7 7 0 1 0 0 14A7 7 0 0 0 8 1zm0 1a6 6 0 1 1 0 12A6 6 0 0 1 8 2z"/>
  <path fill="var(--typo3-text-color, currentColor)" d="M8 2C5.8 2 4 4.7 4 8s1.8 6 4 6 4-2.7 4-6-1.8-6-4-6zm0 1c1.7 0 3 2.2 3 5s-1.3 5-3 5-3-2.2-3-5 1.3-5 3-5z"/>
  <path fill="var(--typo3-text-color, currentColor)" opacity=".4" d="M2.5 6h11v1h-11zM2.5 9h11v1h-11z"/>
</svg>
